<svg width="120" height="40" viewBox="0 0 120 40" fill="none" xmlns="http://www.w3.org/2000/svg">
<g clip-path="url(#clip0_1380_10218)">
<path fill-rule="evenodd" clip-rule="evenodd" d="M47.5193 26.3285V28.515H46.4937V30.1247H47.5193V33.0622C47.5193 35.4901 47.9491 35.5437 51.7604 35.5437V33.545H51.303C50.4992 33.545 50.4022 33.317 50.4022 32.6732V30.1247H51.7882V28.515H50.4022V26.3285H47.5193ZM56.9164 30.1917C57.6509 30.1917 58.136 30.9295 58.136 31.9622C58.136 33.2901 57.6648 33.8671 56.8886 33.8671C56.154 33.8671 55.6413 33.2901 55.6413 31.9622C55.6413 31.1709 55.9322 30.1917 56.9164 30.1917ZM52.7584 32.1097C52.7584 34.5109 54.5601 35.7449 56.8886 35.7449C59.2171 35.7449 61.0187 34.5376 61.0187 31.9622C61.0187 29.7759 59.4387 28.3137 56.8747 28.3137C54.4216 28.3137 52.7584 29.6686 52.7584 32.1097ZM70.6234 30.3124C71.5382 30.3124 71.8432 31.05 71.8432 31.8282C71.8432 32.5792 71.5106 33.2767 70.6234 33.2767C69.8335 33.2767 69.4871 32.6061 69.4871 31.9087C69.4871 30.9965 69.7504 30.3124 70.6234 30.3124ZM66.9785 35.9059C67.117 36.9386 68.198 37.9312 70.7622 37.9312C74.3379 37.9312 74.5873 36.2815 74.5873 34.1755V28.515H72.0511V29.4404C71.8009 29.0985 71.471 28.8183 71.0882 28.6225C70.7054 28.4268 70.2803 28.321 69.8474 28.3137C67.4634 28.3137 66.6042 30.1513 66.6042 31.8818C66.6042 33.6793 67.7545 35.2084 69.7643 35.2084C70.8036 35.2084 71.4274 34.8462 71.8432 34.4437V35.0206C71.8432 36.0267 71.5106 36.3889 70.679 36.3889C70.1246 36.3889 69.9167 36.1473 69.875 35.9059H66.9785ZM79.9927 30.1917C80.7272 30.1917 81.2124 30.9295 81.2124 31.9622C81.2124 33.2901 80.7411 33.8671 79.9649 33.8671C79.2304 33.8671 78.7176 33.2901 78.7176 31.9622C78.7176 31.1709 79.0085 30.1917 79.9927 30.1917ZM75.8348 32.1097C75.8348 34.5109 77.6364 35.7449 79.9649 35.7449C82.2934 35.7449 84.095 34.5376 84.095 31.9622C84.095 29.7759 82.515 28.3137 79.951 28.3137C77.498 28.3137 75.8348 29.6686 75.8348 32.1097Z" fill="#040404"/>
<path d="M36.9782 40H33.3378C33.0945 39.9958 32.858 39.9218 32.6582 39.7875H36.2987C36.4985 39.9218 36.735 39.9958 36.9782 40Z" fill="#858585"/>
<path d="M36.2988 39.7874H32.6583L28.8296 37.3101H32.47L36.2988 39.7874Z" fill="#808080"/>
<path d="M32.4697 37.3101H28.8292C28.274 37.1364 27.9126 37.0658 27.6108 37.0658H31.2513C31.5531 37.0658 31.9145 37.1364 32.4697 37.3101Z" fill="#858585"/>
<path d="M29.3001 1.78296C29.3795 1.73144 29.4587 1.6796 29.5394 1.63012C29.5871 1.60089 29.636 1.57352 29.6841 1.54501C29.7573 1.50165 29.8302 1.45772 29.9044 1.41605C29.9571 1.38643 30.011 1.35874 30.0642 1.32998C30.1355 1.29147 30.2064 1.25231 30.2786 1.21536C30.3124 1.19806 30.3468 1.18191 30.3807 1.16496C30.4668 1.12199 30.5532 1.07954 30.6404 1.0388C30.6854 1.01778 30.731 0.997731 30.7763 0.977301C30.8539 0.94233 30.9317 0.907875 31.0101 0.874678C31.0589 0.854047 31.1079 0.833991 31.157 0.814047C31.2338 0.782803 31.3111 0.752418 31.3887 0.722889C31.4383 0.704032 31.4879 0.685279 31.5377 0.667128C31.618 0.637896 31.6988 0.609988 31.7798 0.582602C31.827 0.566662 31.8739 0.550312 31.9213 0.535002C32.0143 0.504953 32.108 0.476749 32.2019 0.449136C32.2376 0.43865 32.2729 0.427298 32.3087 0.417173C32.4386 0.380409 32.5692 0.345953 32.7006 0.313805C32.727 0.307361 32.7538 0.301971 32.7803 0.295719C32.8879 0.270303 32.9959 0.245864 33.1045 0.22366C33.1307 0.218308 33.1571 0.213392 33.1833 0.208221C33.2937 0.18648 33.4046 0.166388 33.5159 0.147944C33.5368 0.144487 33.5577 0.140645 33.5786 0.137305C33.7039 0.117356 33.8297 0.0996556 33.9561 0.0842044C33.9852 0.0805939 34.0144 0.077336 34.0436 0.0739571C34.161 0.0603676 34.2787 0.048554 34.3967 0.0385161C34.4104 0.0373793 34.424 0.0358688 34.4377 0.0347835C34.5659 0.0246004 34.6947 0.017231 34.8237 0.0115384C34.8544 0.0101889 34.8851 0.0089896 34.9158 0.00794048C35.0466 0.00326366 35.1776 4.57764e-05 35.3091 4.57764e-05H31.6686C31.5371 4.57764e-05 31.4061 0.00326471 31.2753 0.00794048C31.2446 0.00903942 31.2139 0.0101826 31.1832 0.0115384C31.0542 0.0172373 30.9254 0.0245909 30.7972 0.0347835C30.7835 0.0358751 30.7699 0.0373793 30.7562 0.0385161C30.6381 0.0483456 30.5205 0.0603666 30.4032 0.0739486C30.374 0.0773276 30.3448 0.0805918 30.3156 0.0842023C30.1893 0.0998513 30.0635 0.117552 29.9382 0.137303C29.9172 0.140643 29.8963 0.144485 29.8754 0.147942C29.7641 0.166328 29.6532 0.18642 29.5428 0.208219C29.5166 0.21339 29.4903 0.2183 29.4641 0.223658C29.4475 0.22705 29.4307 0.22996 29.4142 0.233429C29.3222 0.252665 29.231 0.274182 29.1398 0.295717C29.1133 0.301969 29.0865 0.307359 29.0601 0.313802C28.9287 0.34585 28.798 0.380306 28.6682 0.41717C28.6324 0.427296 28.5971 0.438644 28.5614 0.449133C28.4675 0.476747 28.3738 0.504951 28.2808 0.534999C28.2334 0.550316 28.1864 0.566668 28.1393 0.582613C28.0583 0.609996 27.9775 0.637892 27.8973 0.667112C27.8474 0.685281 27.7978 0.704035 27.7482 0.72291C27.6706 0.752432 27.5934 0.782804 27.5165 0.814026C27.4674 0.833994 27.4184 0.854052 27.3695 0.874714C27.2912 0.907884 27.2134 0.942308 27.1359 0.977252C27.0905 0.997702 27.045 1.01776 26.9999 1.03881C26.9126 1.0796 26.8261 1.1221 26.7399 1.16513C26.7061 1.18201 26.6718 1.19809 26.6382 1.21532C26.6319 1.21857 26.6254 1.22153 26.619 1.22479C26.5531 1.2587 26.4885 1.29497 26.4234 1.33017C26.3702 1.35886 26.3165 1.38651 26.2639 1.41606C26.1897 1.45772 26.1168 1.50166 26.0436 1.54502C25.9955 1.57352 25.9466 1.6009 25.8989 1.63013C25.8182 1.6796 25.739 1.73145 25.6596 1.78297C25.6207 1.80822 25.581 1.83229 25.5424 1.85803C25.425 1.93628 25.3092 2.01675 25.1948 2.09941H28.8353C28.9496 2.01671 29.0655 1.93625 29.1829 1.85803C29.2215 1.83229 29.2612 1.80821 29.3001 1.78296Z" fill="#8F8F8F"/>
<path d="M25.3382 38.1288H21.6977C19.3626 38.1253 17.0618 37.5839 14.9857 36.5493C12.9095 35.5147 11.1176 34.0167 9.75817 32.1792C8.40536 30.3715 7.4928 28.2909 7.08887 26.0933H10.7294C11.1333 28.2909 12.0458 30.3715 13.3987 32.1792C14.7581 34.0167 16.55 35.5147 18.6261 36.5493C20.7023 37.5839 23.003 38.1253 25.3382 38.1288Z" fill="#858585"/>
<path d="M10.7294 26.0933H7.08894C6.69087 25.9929 6.2823 25.9366 5.87109 25.9256H9.51158C9.92279 25.9366 10.3314 25.9929 10.7294 26.0933Z" fill="#858585"/>
<path d="M35.3093 4.57764e-05C36.2075 0.000520734 37.1021 0.109683 37.9723 0.324992C43.8528 1.77541 47.4316 7.66896 45.9658 13.4886C45.5791 15.0557 44.8345 16.519 43.7867 17.7711C42.7389 19.0231 41.4146 20.032 39.9111 20.7236C40.5907 24.3024 39.9041 27.9983 37.979 31.1238C36.9928 32.7144 36.585 32.3876 36.6041 34.3382L37.8114 38.8221C38.003 39.5351 37.553 40 36.9782 40C36.735 39.9958 36.4985 39.9218 36.2987 39.7875L32.4699 37.3101C31.9147 37.1364 31.5534 37.0658 31.2516 37.0658C30.6941 37.0658 30.3399 37.3067 29.343 37.5839C28.041 37.9457 26.6931 38.1291 25.3385 38.1288C23.0034 38.1253 20.7026 37.5839 18.6265 36.5493C16.5503 35.5147 14.7584 34.0168 13.399 32.1792C12.0462 30.3715 11.1336 28.2909 10.7297 26.0933C10.3316 25.9929 9.92303 25.9367 9.51183 25.9256L4.80129 26.8408C4.71634 26.8576 4.62987 26.8663 4.54316 26.8666C3.6962 26.8666 3.35873 25.9697 3.90897 25.2464L6.72572 21.546C7.34421 19.9828 6.99284 19.9487 6.65582 18.3676C5.39681 12.438 7.86027 6.09067 13.3205 2.62331C15.6071 1.16465 18.2649 0.344058 21.002 0.251637C23.739 0.159216 26.4494 0.798544 28.8356 2.09942C30.7026 0.741367 32.9738 0.00485206 35.3093 4.57764e-05Z" fill="#E8E8E8"/>
<path d="M13.8404 2.30829C13.9806 2.22679 14.1217 2.14767 14.2635 2.07092C14.2874 2.05807 14.3113 2.04574 14.3352 2.03304C14.4437 1.97524 14.5529 1.91974 14.6622 1.8648C14.7353 1.82813 14.8084 1.79204 14.8818 1.75653C14.9697 1.71412 15.0579 1.6727 15.1464 1.63229C15.2201 1.59847 15.2938 1.56484 15.3678 1.53228C15.457 1.49304 15.5466 1.45523 15.6363 1.41782C15.7101 1.38703 15.7839 1.35616 15.858 1.32661C15.949 1.29031 16.0405 1.25568 16.1319 1.22123C16.2054 1.19357 16.2787 1.16556 16.3524 1.1391C16.4457 1.10561 16.5394 1.07406 16.6331 1.04248C16.7056 1.01804 16.7779 0.992981 16.8506 0.969685C16.9473 0.938712 17.0444 0.909968 17.1414 0.881005C17.2116 0.860047 17.2817 0.838184 17.3521 0.81828C17.4544 0.789343 17.5572 0.762932 17.6598 0.736204C17.7254 0.719134 17.7909 0.700875 17.8566 0.684703C17.9736 0.655914 18.091 0.629978 18.2084 0.604042C18.26 0.592637 18.3114 0.57984 18.3631 0.568982C18.5186 0.536325 18.6744 0.506675 18.8304 0.478964C18.8744 0.471145 18.9186 0.464085 18.9626 0.456658C19.0803 0.436832 19.198 0.418385 19.3159 0.401315C19.3631 0.394506 19.4102 0.38756 19.4574 0.381193C19.6038 0.361437 19.7503 0.343404 19.8969 0.32793C19.9082 0.326735 19.9196 0.325161 19.9309 0.323985C20.0884 0.307724 20.2459 0.294605 20.4035 0.283248C20.4489 0.279978 20.4943 0.277402 20.5397 0.274537C20.6577 0.26709 20.7758 0.261008 20.8938 0.25629C20.9402 0.254446 20.9865 0.25239 21.0328 0.250964C21.1906 0.246101 21.3484 0.242859 21.5061 0.242859H17.8656C17.708 0.242853 17.5501 0.246098 17.3923 0.250964C17.346 0.25239 17.2997 0.254446 17.2533 0.25629C17.1353 0.261 17.0172 0.267082 16.8992 0.274537C16.8538 0.277402 16.8084 0.279985 16.763 0.283248C16.6054 0.294607 16.4477 0.307727 16.2902 0.324001C16.2793 0.325125 16.2684 0.326647 16.2575 0.327798C16.1105 0.343301 15.9636 0.361386 15.8169 0.381193C15.7698 0.387548 15.7227 0.394473 15.6756 0.401277C15.5575 0.418342 15.4395 0.436823 15.3216 0.456722C15.2778 0.464111 15.234 0.471133 15.1902 0.478907C15.0381 0.50591 14.8862 0.534539 14.7347 0.566245C14.7306 0.5671 14.7266 0.568153 14.7225 0.569007C14.6715 0.579711 14.6208 0.592335 14.5699 0.603572C14.4518 0.629656 14.3337 0.655773 14.2159 0.684742C14.1507 0.700784 14.0858 0.718916 14.0207 0.735844C13.9175 0.762686 13.8143 0.789235 13.7114 0.818319C13.6412 0.838184 13.5713 0.860009 13.5012 0.880915C13.4041 0.909897 13.307 0.93866 13.2102 0.96966C13.1374 0.992968 13.065 1.01805 12.9925 1.04251C12.8989 1.07408 12.8052 1.10561 12.7119 1.13909C12.6382 1.16556 12.5649 1.19357 12.4914 1.22123C12.4 1.25568 12.3085 1.29029 12.2175 1.32661C12.1434 1.35616 12.0696 1.38702 11.9958 1.41781C11.9061 1.45522 11.8166 1.49302 11.7274 1.53227C11.6533 1.56483 11.5796 1.59845 11.5059 1.63228C11.4175 1.67288 11.3293 1.71429 11.2413 1.75653C11.1679 1.79193 11.0947 1.82802 11.0218 1.8648C10.9776 1.88698 10.933 1.90764 10.889 1.93028C10.824 1.96373 10.7594 1.99857 10.6947 2.03303C10.6708 2.04574 10.6469 2.05806 10.6231 2.07091C10.4812 2.14747 10.3401 2.22659 10.1999 2.30828C10.1692 2.32609 10.1387 2.34422 10.1081 2.36227C9.96454 2.44698 9.82156 2.53336 9.67984 2.6233C4.21964 6.09066 1.75618 12.438 3.0152 18.3676C3.35221 19.9487 3.70359 19.9828 3.08509 21.546L0.268345 25.2464C-0.281894 25.9697 0.0555732 26.8666 0.902532 26.8666H4.54301C3.69606 26.8666 3.35859 25.9697 3.90883 25.2464L6.72557 21.546C7.34408 19.9828 6.9927 19.9487 6.65568 18.3676C5.39667 12.438 7.86013 6.09066 13.3203 2.6233C13.462 2.53336 13.605 2.44698 13.7486 2.36227C13.7792 2.34423 13.8097 2.3261 13.8404 2.30829Z" fill="#858585"/>
<path fill-rule="evenodd" clip-rule="evenodd" d="M34.2852 7.10326C36.242 10.0102 37.0931 13.4854 36.6924 16.9331C36.2918 20.3808 34.6644 23.5862 32.0893 25.9999C29.5143 28.4135 26.1518 29.8851 22.5785 30.1622C19.0052 30.4394 15.4435 29.5049 12.5041 27.5189C10.895 26.4319 11.2637 26.041 9.21422 25.9424L4.4319 26.8849C3.38347 27.0913 2.90514 26.0984 3.51258 25.3061L6.34968 21.6056C6.96709 20.0465 6.60912 20.0159 6.25565 18.4454C5.48729 15.0295 5.98034 11.461 7.64903 8.36051C9.31773 5.26 12.0565 2.82363 15.3891 1.4751C18.7217 0.126575 22.4372 -0.0488029 25.8896 0.979471C29.3419 2.00775 32.3127 4.17462 34.2852 7.10326V7.10326Z" fill="#E42125"/>
<path fill-rule="evenodd" clip-rule="evenodd" d="M36.4334 0.325147C38.9606 0.935251 41.1899 2.3772 42.739 4.40378C44.288 6.43037 45.0605 8.91536 44.9238 11.4328C44.7871 13.9501 43.7499 16.3431 41.99 18.2014C40.23 20.0598 37.8569 21.2677 35.2775 21.6181C33.8657 21.81 33.8621 21.4253 32.721 22.3542L30.6577 25.1454C30.2053 25.7572 29.4434 25.4579 29.3615 24.7453L28.9798 21.4177C28.5115 20.2927 28.3054 20.4476 27.3146 19.781C25.1597 18.331 23.598 16.1959 22.9013 13.747C22.2045 11.2981 22.4166 8.69029 23.5008 6.37709C24.585 4.06389 26.4726 2.19164 28.8354 1.08594C31.1982 -0.0197639 33.8868 -0.288966 36.4334 0.325147Z" fill="#2E90D1"/>
<path fill-rule="evenodd" clip-rule="evenodd" d="M14.6657 12.4667C17.4007 10.3196 20.8222 9.16014 24.3438 9.18712C27.8653 9.2141 31.2675 10.4258 33.967 12.6146C36.6666 14.8033 38.4954 17.8327 39.1399 21.1835C39.7844 24.5342 39.2045 27.9976 37.4996 30.9799C36.5664 32.6124 36.1342 32.3036 36.244 34.2519L37.6834 38.6779C37.9988 39.6483 37.0452 40.2017 36.1834 39.7085L32.158 37.4033C30.5211 36.9786 30.5267 37.3201 28.9773 37.8145C25.6072 38.8898 21.9542 38.7879 18.6537 37.5264C15.3532 36.2649 12.614 33.9237 10.9124 30.9099C9.21079 27.8962 8.65448 24.4005 9.34021 21.0309C10.0259 17.6613 11.9103 14.6309 14.6657 12.4667Z" fill="#78258D"/>
<path d="M35.3393 18.1123L34.2517 18.7439H26.7471L28.161 18.1123H35.3393Z" fill="#808080"/>
<path d="M28.1899 18.2942L26.6176 19.0588C26.6006 19.0563 26.5832 19.0586 26.5674 19.0653L28.1396 18.3007C28.1554 18.294 28.1728 18.2918 28.1899 18.2942Z" fill="#858585"/>
<path d="M22.6479 27.2312L21.0757 27.9957C22.1618 27.09 23.1537 26.0834 24.037 24.9905L25.6093 24.226C24.7259 25.3189 23.7341 26.3254 22.6479 27.2312Z" fill="#858585"/>
<path d="M31.5349 32.6969L29.9627 33.4615C29.7419 33.5779 29.4956 33.6416 29.2442 33.6473C28.5807 33.6473 27.8934 33.1468 26.5436 32.1582C24.8944 30.9537 21.1582 28.1729 21.0757 27.9957L22.6479 27.2312C22.7304 27.4083 26.4667 30.1892 28.1158 31.3936C29.4657 32.3823 30.1529 32.8827 30.8165 32.8827C31.0678 32.8771 31.3141 32.8134 31.5349 32.6969Z" fill="#858585"/>
<path d="M25.6093 24.226C26.2123 24.5586 31.7338 28.6364 33.4986 29.892C34.1695 30.3683 34.2092 30.6989 33.5464 31.2322C32.1767 32.3372 31.5095 32.8827 30.8165 32.8827C30.1529 32.8827 29.4657 32.3823 28.1158 31.3936C26.4667 30.1892 22.7304 27.4083 22.6479 27.2312C23.7341 26.3254 24.726 25.3189 25.6093 24.226Z" fill="white"/>
<path d="M12.145 28.2308L10.5728 28.9953C10.8233 28.8202 12.1743 27.8735 12.961 27.411C16.22 25.4981 19.1588 23.2624 21.0942 20.0092C21.1855 19.8557 21.2748 19.6982 21.364 19.5388C21.5573 19.1539 21.7253 18.7575 21.8668 18.3521C22.2396 17.3493 22.526 16.3185 22.7231 15.27L24.2458 14.1121C24.2084 14.4132 24.2975 14.0762 24.0282 15.6911C23.9411 16.2136 23.632 17.0916 23.4391 17.5875C23.2682 18.0461 23.106 19.0848 22.7231 19.5858C20.4163 22.6036 17.7922 24.7335 14.5333 26.6465C13.7466 27.109 12.3956 28.0556 12.145 28.2308Z" fill="#858585"/>
<path d="M14.389 31.801L12.8168 32.5656L10.5591 29.0683L12.1314 28.3038L14.389 31.801Z" fill="#808080"/>
<path d="M35.1219 14.1123L35.3394 18.1123H28.1611C28.1141 18.1079 27.7416 19.1778 27.4662 19.8922C26.8484 21.4903 26.3002 22.2953 25.2641 23.6375C23.7715 25.5682 21.8789 27.2509 19.6754 28.7387C18.4503 29.5673 15.7322 31.0689 14.7504 31.6022C14.5257 31.7282 14.3959 31.7974 14.3891 31.801L12.1315 28.3038C12.1235 28.2923 12.1204 28.2783 12.1229 28.2647C12.1254 28.2511 12.1333 28.239 12.1449 28.2309C12.3954 28.0558 13.7464 27.1092 14.5331 26.6467C17.7921 24.7337 20.7309 22.498 22.6663 19.2448C22.7576 19.0913 22.8441 18.9323 22.9361 18.7744C23.2959 18.1579 23.6472 16.8771 23.8439 15.9302C24.1771 14.3266 24.2082 14.4134 24.2456 14.1123C24.2499 14.0853 35.1219 14.1123 35.1219 14.1123Z" fill="white"/>
<path d="M12.1315 28.3038L10.5592 29.0683C10.5512 29.0569 10.5482 29.0429 10.5507 29.0293C10.5532 29.0157 10.561 29.0036 10.5726 28.9955L12.1449 28.2309C12.1333 28.239 12.1254 28.2511 12.1229 28.2647C12.1204 28.2783 12.1235 28.2923 12.1315 28.3038Z" fill="#858585"/>
<path d="M32.1384 6.75303L30.5661 7.51755H29.3369L30.9092 6.75303H32.1384Z" fill="#808080"/>
<path d="M28.7485 11.6762L27.1762 12.4407C26.5654 12.7355 25.8916 12.8875 25.2091 12.8845C25.1989 12.8845 25.1884 12.8845 25.1782 12.8844C22.7092 12.8687 20.8072 11.0167 20.7993 8.62159C20.7986 7.83942 21.0228 7.07249 21.4469 6.40666C21.871 5.74083 22.4782 5.2024 23.2005 4.85164L24.7728 4.08708C24.0504 4.43784 23.4432 4.97628 23.0191 5.64211C22.595 6.30793 22.3708 7.07487 22.3716 7.85704C22.3795 10.2522 24.2814 12.1041 26.7504 12.1199C26.7606 12.1199 26.7711 12.1199 26.7813 12.1199C27.4639 12.1229 28.1377 11.9709 28.7485 11.6762Z" fill="#858585"/>
<path d="M32.1074 3.64738L32.1386 6.75298H30.9093C31.0186 7.12304 31.076 7.50563 31.0802 7.8905C31.1062 10.2678 29.2194 12.1199 26.7813 12.1199C26.7711 12.1199 26.7606 12.1199 26.7504 12.1198C24.2814 12.1041 22.3795 10.2522 22.3716 7.85703C22.3699 6.75278 22.8172 5.69222 23.6168 4.90453C24.4164 4.11683 25.5042 3.66525 26.645 3.64738C26.7762 3.64738 26.9075 3.65131 27.0368 3.66115L32.1074 3.64738Z" fill="white"/>
<path d="M50.7028 13.5796V20.9559H55.1763V23.2009H47.4443V13.5796H50.7028Z" fill="#040404"/>
<path d="M59.2221 18.3502H56.4607C56.4607 17.5841 56.7736 17.0006 57.3994 16.5996C58.0253 16.1988 59.0286 15.9984 60.4094 15.9984C60.8967 15.9935 61.3837 16.0247 61.8661 16.0919C62.2163 16.1365 62.5567 16.2358 62.874 16.3858C63.1056 16.4986 63.3194 16.6425 63.5092 16.8134C63.6793 16.9803 63.8007 17.1878 63.8612 17.4148C63.9292 17.6376 63.9777 17.8656 64.0062 18.0963C64.032 18.3628 64.0436 18.6305 64.0408 18.8981V22.172C64.0334 22.3478 64.0544 22.5236 64.1029 22.6932C64.1736 22.8443 64.2858 22.9737 64.4273 23.0673V23.2009H61.4588L61.3207 22.4526C60.6211 23.0852 59.7145 23.4015 58.6007 23.4013C57.8642 23.4013 57.2497 23.221 56.7574 22.8602C56.2649 22.4994 56.0187 21.976 56.0187 21.29C56.0006 20.8487 56.1341 20.414 56.3985 20.054C56.6366 19.7394 56.9693 19.5037 57.3511 19.3791C57.7574 19.2484 58.1726 19.1457 58.5939 19.0718C59.0047 18.9961 59.4195 18.9426 59.8365 18.9115C60.1641 18.897 60.4865 18.8268 60.7891 18.7043C61.0423 18.5931 61.1689 18.4394 61.1689 18.2433C61.1689 17.8603 60.8559 17.6688 60.23 17.6687C59.6132 17.6687 59.2773 17.8959 59.2221 18.3502ZM61.1689 20.1008C60.8678 20.225 60.5527 20.3147 60.23 20.3679C59.9055 20.4189 59.5911 20.5181 59.2979 20.662C59.1957 20.7199 59.1123 20.8045 59.0574 20.9061C59.0025 21.0078 58.9782 21.1223 58.9874 21.2366C58.9865 21.3227 59.0089 21.4075 59.0525 21.4825C59.0961 21.5576 59.1593 21.6202 59.2358 21.6642C59.4355 21.7798 59.6662 21.8356 59.8986 21.8245C60.3771 21.8245 60.7084 21.682 60.8927 21.3969C61.0768 21.1119 61.1688 20.6798 61.1689 20.1008V20.1008Z" fill="#040404"/>
<path d="M68.1825 16.1988V17.2945C68.8453 16.4305 69.6598 15.9985 70.6263 15.9984C72.4949 15.9984 73.4293 17.0006 73.4293 19.005V23.2009H70.5573V19.4994C70.5573 18.6265 70.2214 18.1899 69.5494 18.1898C69.1259 18.1898 68.8337 18.3101 68.6727 18.5507C68.5115 18.7912 68.431 19.152 68.431 19.633V23.2009H65.5591V16.1988H68.1825Z" fill="#040404"/>
<path d="M75.0445 23.5617H77.93C77.9853 23.8824 78.2523 24.0428 78.7309 24.0427C79.1451 24.0427 79.4419 23.9403 79.6213 23.7354C79.8011 23.5304 79.8908 23.1786 79.8905 22.6798V22.1052C79.366 22.6129 78.6756 22.8668 77.8194 22.8668C76.8531 22.8668 76.0869 22.5484 75.5207 21.9114C74.9546 21.2746 74.6715 20.4884 74.6715 19.5529C74.6688 19.117 74.7293 18.683 74.851 18.2634C74.9686 17.8621 75.1504 17.481 75.3897 17.1341C75.6425 16.7753 75.9906 16.4891 76.3974 16.3057C76.8681 16.0928 77.3831 15.9876 77.9026 15.9984C78.3317 15.9975 78.7542 16.1009 79.1314 16.2989C79.5148 16.4969 79.8456 16.7782 80.0977 17.1209V16.1988H82.6245V21.8379C82.6245 22.2477 82.613 22.5863 82.5899 22.8535C82.5619 23.1489 82.5088 23.4417 82.4313 23.7288C82.3652 24.0111 82.2355 24.2757 82.0515 24.5038C81.8596 24.7227 81.6365 24.9139 81.3887 25.0717C81.0673 25.2686 80.708 25.4004 80.3325 25.4593C79.8312 25.5451 79.3227 25.5854 78.8136 25.5796C77.6262 25.5796 76.7195 25.3858 76.0935 24.9982C75.4677 24.6107 75.118 24.1319 75.0445 23.5617ZM78.6756 17.9894C77.9208 17.9894 77.5434 18.5195 77.5435 19.5796C77.5316 19.9241 77.6332 20.2633 77.8334 20.5484C77.928 20.6775 78.0548 20.7814 78.2021 20.8503C78.3494 20.9193 78.5123 20.951 78.6756 20.9426C79.0898 20.9426 79.3959 20.8045 79.5939 20.5283C79.8003 20.2233 79.904 19.8638 79.8905 19.4994C79.906 19.1188 79.8051 18.7424 79.6006 18.417C79.4073 18.132 79.099 17.9895 78.6756 17.9894Z" fill="#040404"/>
<path d="M84.1431 16.1988H87.0151V19.9805C87.0151 20.4437 87.0979 20.7711 87.2636 20.9627C87.4292 21.1543 87.6916 21.2501 88.0506 21.25C88.4461 21.25 88.7269 21.1119 88.8929 20.8357C89.0585 20.5597 89.1413 20.1365 89.1412 19.5662V16.1988H92.0132V23.2009H89.3484V22.1719C88.9985 22.6442 88.6303 22.9672 88.2439 23.1408C87.8573 23.3144 87.3557 23.4013 86.7389 23.4013C85.9287 23.4013 85.2936 23.1564 84.8334 22.6664C84.373 22.1765 84.1428 21.4416 84.1431 20.4616V16.1988Z" fill="#040404"/>
<path d="M96.3899 18.3502H93.6285C93.6285 17.5841 93.9415 17.0006 94.5674 16.5996C95.1933 16.1988 96.1966 15.9984 97.5774 15.9984C98.0647 15.9935 98.5517 16.0247 99.0341 16.0919C99.3842 16.1365 99.7246 16.2358 100.042 16.3858C100.274 16.4985 100.487 16.6425 100.677 16.8134C100.847 16.9803 100.969 17.1878 101.029 17.4148C101.097 17.6376 101.146 17.8656 101.174 18.0963C101.2 18.3628 101.212 18.6305 101.209 18.8981V22.172C101.201 22.3478 101.222 22.5236 101.271 22.6932C101.342 22.8442 101.454 22.9736 101.595 23.0673V23.2009H98.6269L98.4887 22.4526C97.7891 23.0852 96.8824 23.4015 95.7686 23.4013C95.0321 23.4013 94.4177 23.221 93.9254 22.8602C93.433 22.4994 93.1868 21.976 93.1867 21.29C93.1685 20.8487 93.3021 20.414 93.5665 20.054C93.8046 19.7394 94.1373 19.5037 94.5191 19.3791C94.9253 19.2484 95.3406 19.1457 95.7618 19.0718C96.1726 18.9961 96.5874 18.9426 97.0043 18.9115C97.332 18.897 97.6546 18.8269 97.9572 18.7043C98.2102 18.5931 98.3367 18.4394 98.3367 18.2433C98.3367 17.8603 98.0238 17.6688 97.3978 17.6687C96.7812 17.6687 96.4452 17.8959 96.3899 18.3502ZM98.3367 20.1008C98.0356 20.2251 97.7205 20.3147 97.3978 20.3679C97.0734 20.4189 96.759 20.5181 96.4659 20.662C96.3636 20.7199 96.2803 20.8045 96.2254 20.9062C96.1705 21.0078 96.1462 21.1223 96.1553 21.2366C96.1544 21.3227 96.1769 21.4075 96.2205 21.4826C96.2641 21.5576 96.3274 21.6203 96.4039 21.6642C96.6036 21.7798 96.8342 21.8356 97.0666 21.8245C97.545 21.8245 97.8764 21.682 98.0608 21.3969C98.2446 21.1119 98.3366 20.6798 98.3367 20.1008V20.1008Z" fill="#040404"/>
<path d="M102.824 23.5617H105.71C105.765 23.8824 106.032 24.0428 106.511 24.0427C106.925 24.0427 107.222 23.9403 107.401 23.7354C107.581 23.5304 107.67 23.1786 107.671 22.6798V22.1052C107.146 22.6129 106.455 22.8668 105.599 22.8668C104.633 22.8668 103.867 22.5484 103.3 21.9114C102.734 21.2746 102.451 20.4884 102.451 19.5529C102.449 19.117 102.509 18.683 102.631 18.2633C102.748 17.8621 102.93 17.4811 103.169 17.1341C103.422 16.7754 103.77 16.4892 104.177 16.3057C104.648 16.0928 105.163 15.9876 105.682 15.9984C106.111 15.9975 106.534 16.1009 106.911 16.2989C107.295 16.4969 107.625 16.7782 107.877 17.1208V16.1988H110.404V21.8379C110.404 22.2477 110.393 22.5863 110.37 22.8535C110.342 23.1489 110.289 23.4417 110.211 23.7288C110.145 24.0111 110.015 24.2757 109.831 24.5038C109.639 24.7227 109.416 24.914 109.169 25.0717C108.847 25.2686 108.488 25.4004 108.112 25.4593C107.611 25.5451 107.102 25.5854 106.593 25.5795C105.406 25.5795 104.5 25.3858 103.874 24.9982C103.247 24.6107 102.898 24.1319 102.824 23.5617ZM106.455 17.9894C105.701 17.9894 105.323 18.5195 105.323 19.5796C105.311 19.9241 105.413 20.2633 105.613 20.5484C105.708 20.6775 105.835 20.7814 105.982 20.8504C106.129 20.9193 106.292 20.951 106.455 20.9426C106.87 20.9426 107.176 20.8045 107.374 20.5283C107.58 20.2233 107.684 19.8638 107.671 19.4994C107.686 19.1188 107.585 18.7423 107.38 18.417C107.187 18.132 106.879 17.9895 106.455 17.9894Z" fill="#040404"/>
<path d="M120 20.3279H114.518C114.512 20.5116 114.546 20.6945 114.617 20.8648C114.689 21.0351 114.796 21.1891 114.933 21.3168C115.065 21.4432 115.223 21.5426 115.396 21.6091C115.569 21.6756 115.754 21.708 115.941 21.7042C116.456 21.7042 116.815 21.4993 117.018 21.0896H119.765C119.667 21.4674 119.485 21.8201 119.232 22.1235C118.98 22.4268 118.662 22.6736 118.302 22.8468C117.513 23.226 116.642 23.4162 115.761 23.4013C114.555 23.4013 113.568 23.0806 112.8 22.4392C112.031 21.7979 111.646 20.907 111.646 19.7667C111.646 18.6354 112.035 17.7245 112.813 17.034C113.591 16.3436 114.569 15.9984 115.747 15.9984C117.073 15.9984 118.113 16.3881 118.868 17.1676C119.622 17.9472 120 19.0007 120 20.3279ZM114.518 18.9115H117.128C117.128 18.7524 117.094 18.5951 117.029 18.4492C116.964 18.3032 116.868 18.1718 116.748 18.0629C116.634 17.9461 116.495 17.8532 116.342 17.79C116.189 17.7268 116.024 17.6946 115.858 17.6954C115.434 17.6954 115.105 17.8045 114.871 18.0228C114.751 18.1389 114.658 18.278 114.597 18.4311C114.537 18.5841 114.51 18.7478 114.518 18.9115V18.9115Z" fill="#040404"/>
</g>
<defs>
<clipPath id="clip0_1380_10218">
<rect width="120" height="40" fill="white"/>
</clipPath>
</defs>
</svg>
